<svg width="106" height="28" viewBox="0 0 106 28" fill="none" xmlns="http://www.w3.org/2000/svg">
<path d="M0 0V27.5441H7.54227V16.8962C7.54227 15.7625 7.48192 13.9123 7.41423 11.837C7.37596 10.6634 7.33533 9.41791 7.30195 8.18927C8.18927 11.5537 9.11357 15.0291 9.68663 16.8962L12.9402 27.5441H19.1514L22.3495 16.8962C22.9226 14.9551 23.8838 11.3134 24.7527 7.85653C24.7198 9.41227 24.6685 11.0083 24.6218 12.4636C24.5636 14.2764 24.5124 15.8707 24.5124 16.8962V27.5441H32.0546V24.4379C30.6446 22.7329 29.8494 20.4702 29.8494 17.7776C29.8494 15.1008 30.6446 12.8404 32.0546 11.1328V0H20.5379L18.0977 8.61445C17.5616 10.4815 16.7483 13.6796 16.0458 16.5079C15.3433 13.6796 14.5115 10.4815 13.9754 8.61445L11.4983 0H0Z" fill="black" style="fill:black;fill-opacity:1;"/>
<path d="M42.0028 27.9877C35.6621 27.9877 31.3549 24.0502 31.3549 17.7835C31.3549 11.5537 35.6621 7.57924 42.0028 7.57924C48.362 7.57924 52.6507 11.5537 52.6507 17.7835C52.6507 24.0317 48.362 27.9877 42.0028 27.9877ZM42.0028 22.2201C43.759 22.2201 45.1824 20.7227 45.1824 17.7835C45.1824 14.8442 43.759 13.3469 42.0028 13.3469C40.2466 13.3469 38.8232 14.8442 38.8232 17.7835C38.8232 20.7227 40.2466 22.2201 42.0028 22.2201Z" fill="black" style="fill:black;fill-opacity:1;"/>
<path d="M61.2134 27.9877C54.8727 27.9877 50.5655 24.0502 50.5655 17.7835C50.5655 11.5537 54.8727 7.57924 61.2134 7.57924C67.5726 7.57924 71.8613 11.5537 71.8613 17.7835C71.8613 24.0317 67.5726 27.9877 61.2134 27.9877ZM61.2134 22.2201C62.9696 22.2201 64.393 20.7227 64.393 17.7835C64.393 14.8442 62.9696 13.3469 61.2134 13.3469C59.4572 13.3469 58.0338 14.8442 58.0338 17.7835C58.0338 20.7227 59.4572 22.2201 61.2134 22.2201Z" fill="black" style="fill:black;fill-opacity:1;"/>
<path d="M78.2057 27.9877C73.0851 27.9877 69.7761 23.9578 69.7761 17.7465C69.7761 11.7755 73.233 7.57924 78.1317 7.57924C80.6643 7.57924 82.3465 8.52202 83.5851 10.574H83.6036V0H90.998V27.5441H83.6775V24.5124H83.659C82.7717 26.8046 80.7937 27.9877 78.2057 27.9877ZM80.4055 22.1831C82.4205 22.1831 83.8624 20.4455 83.8624 17.7465C83.8624 15.066 82.4205 13.3469 80.4055 13.3469C78.3905 13.3469 77.2444 15.066 77.2444 17.7465C77.2444 20.4455 78.3905 22.1831 80.4055 22.1831Z" fill="black" style="fill:black;fill-opacity:1;"/>
<path d="M91.906 27.5441V8.0229H99.0785V11.5722H99.1155C99.818 8.9472 101.241 8.0229 103.922 8.0229H105.77V13.9384H103.071C100.761 13.9384 99.3004 15.5837 99.3004 18.1902V27.5441H91.906Z" fill="black" style="fill:black;fill-opacity:1;"/>
<path d="M44.313 17.7953C44.313 18.6839 43.635 19.4043 42.7986 19.4043C41.9622 19.4043 41.2842 18.6839 41.2842 17.7953C41.2842 16.9067 41.9622 16.1863 42.7986 16.1863C43.635 16.1863 44.313 16.9067 44.313 17.7953Z" fill="black" style="fill:black;fill-opacity:1;"/>
<path d="M62.7868 17.7953C62.7868 18.6839 62.1088 19.4043 61.2724 19.4043C60.4361 19.4043 59.7581 18.6839 59.7581 17.7953C59.7581 16.9067 60.4361 16.1863 61.2724 16.1863C62.1088 16.1863 62.7868 16.9067 62.7868 17.7953Z" fill="black" style="fill:black;fill-opacity:1;"/>
<path d="M81.2614 17.7953C81.2614 18.6839 80.5834 19.4043 79.747 19.4043C78.9107 19.4043 78.2327 18.6839 78.2327 17.7953C78.2327 16.9067 78.9107 16.1863 79.747 16.1863C80.5834 16.1863 81.2614 16.9067 81.2614 17.7953Z" fill="black" style="fill:black;fill-opacity:1;"/>
</svg>
